<?xml version="1.0" encoding="utf-8"?>
<!-- Generator: Adobe Illustrator 25.2.0, SVG Export Plug-In . SVG Version: 6.00 Build 0)  -->
<svg version="1.1" id="Layer_1" xmlns="http://www.w3.org/2000/svg" xmlns:xlink="http://www.w3.org/1999/xlink" x="0px" y="0px"
	 viewBox="0 0 841.89 595.28" style="enable-background:new 0 0 841.89 595.28;" xml:space="preserve">
<style type="text/css">
	.st0{fill:#010101;}
</style>
<g>
	<g>
		<g>
			<polygon class="st0" points="457.87,213.24 457.87,227.83 472.46,227.83 472.46,198.65 443.28,198.65 443.28,213.24 			"/>
		</g>
		<path class="st0" d="M472.46,293.47v-51.06h-14.59v51.06c0,20.14-16.33,36.47-36.47,36.47c-20.14,0-36.47-16.33-36.47-36.47
			v-80.23h43.76v-14.59h-58.35v94.82c0,28.2,22.86,51.06,51.06,51.06S472.46,321.67,472.46,293.47"/>
	</g>
	<g>
		<path class="st0" d="M272.44,387.27V373.7h4.07v13.64c0,3.19,1.34,4.75,4.1,4.75c2.75,0,4.1-1.56,4.1-4.75V373.7h4.07v13.57
			c0,5.85-3.38,8.57-8.16,8.57C275.82,395.84,272.44,393.12,272.44,387.27z"/>
		<path class="st0" d="M293.04,373.7h7.97c4.38,0,6.66,2.6,6.66,6.22c0,2.88-1.44,5.07-4.1,5.88l6.07,9.79h-4.53l-5.88-9.44h-2.13
			v9.44h-4.07V373.7z M301.04,382.39c1.47,0,2.56-0.69,2.56-2.47c0-1.78-1.09-2.47-2.56-2.47h-3.94v4.94H301.04z"/>
		<path class="st0" d="M312.37,373.7h8.01c3.72,0,6.25,1.94,6.25,5.91c0,1.78-0.78,3.32-2.16,4.03c2.06,0.84,3.28,2.56,3.28,5.35
			c0,4.25-2.75,6.6-7.22,6.6h-8.16V373.7z M320.15,382.2c1.63,0,2.56-0.59,2.56-2.38c0-1.78-0.94-2.38-2.66-2.38h-3.63v4.75H320.15z
			 M320.15,391.84c2.53,0,3.53-1.06,3.53-2.94c0-1.88-1-2.94-3.53-2.94h-3.72v5.88H320.15z"/>
		<path class="st0" d="M336.38,373.7h4.07l7.41,21.89h-4.38l-1.6-5.16h-6.94l-1.6,5.16h-4.38L336.38,373.7z M340.73,386.68
			l-2.31-7.6l-2.31,7.6H340.73z"/>
		<path class="st0" d="M350.41,373.7h4.28l8.04,14.45V373.7h4.07v21.89h-4.28l-8.04-14.45v14.45h-4.07V373.7z"/>
		<path class="st0" d="M377.43,388.52h4.03c0.34,2.06,1.41,3.57,3.63,3.57c1.63,0,3.06-0.94,3.06-2.69c0-1.72-1.56-2.6-4.97-3.91
			c-2.85-1.09-5.19-2.72-5.19-6.16c0-3.31,2.66-5.88,6.75-5.88c3.85,0,6.54,2.1,6.85,5.97h-3.91c-0.25-1.31-1.5-2.22-2.94-2.22
			c-1.63,0-2.88,0.72-2.88,2c0,1.34,1.38,2.1,5.38,3.75c2.6,1.06,4.97,2.66,4.97,6.35c0,4-3.13,6.54-7.22,6.54
			C380.37,395.84,377.59,392.99,377.43,388.52z"/>
		<path class="st0" d="M395.73,373.7h8.26c4.63,0,6.85,2.85,6.85,6.66c0,3.82-2.22,6.66-6.85,6.66h-4.19v8.57h-4.07V373.7z
			 M403.83,383.27c1.78,0,2.88-0.91,2.88-2.91c0-2-1.09-2.91-2.88-2.91h-4.03v5.82H403.83z"/>
		<path class="st0" d="M412.83,384.64c0-7.6,5.04-11.2,10.88-11.2c5.85,0,10.88,3.6,10.88,11.2c0,7.6-5.04,11.2-10.88,11.2
			C417.87,395.84,412.83,392.24,412.83,384.64z M430.47,384.64c0-5.19-3.16-7.44-6.76-7.44c-3.6,0-6.76,2.25-6.76,7.44
			c0,5.19,3.16,7.44,6.76,7.44C427.31,392.09,430.47,389.83,430.47,384.64z"/>
		<path class="st0" d="M437.95,373.7h7.97c4.38,0,6.66,2.6,6.66,6.22c0,2.88-1.44,5.07-4.1,5.88l6.07,9.79h-4.53l-5.88-9.44h-2.13
			v9.44h-4.07V373.7z M445.95,382.39c1.47,0,2.56-0.69,2.56-2.47c0-1.78-1.09-2.47-2.56-2.47h-3.94v4.94H445.95z"/>
		<path class="st0" d="M461.09,377.45h-6.1v-3.75h16.26v3.75h-6.1v18.14h-4.07V377.45z"/>
		<path class="st0" d="M472.6,388.52h4.03c0.34,2.06,1.41,3.57,3.63,3.57c1.63,0,3.06-0.94,3.06-2.69c0-1.72-1.56-2.6-4.97-3.91
			c-2.85-1.09-5.19-2.72-5.19-6.16c0-3.31,2.66-5.88,6.76-5.88c3.85,0,6.54,2.1,6.85,5.97h-3.91c-0.25-1.31-1.5-2.22-2.94-2.22
			c-1.63,0-2.88,0.72-2.88,2c0,1.34,1.38,2.1,5.38,3.75c2.6,1.06,4.97,2.66,4.97,6.35c0,4-3.13,6.54-7.22,6.54
			C475.54,395.84,472.75,392.99,472.6,388.52z"/>
		<path class="st0" d="M496.33,384.64c0-7.32,4.88-11.2,10.35-11.2c4.88,0,8.38,2.5,9.19,7.1h-4.07c-0.72-1.94-2.22-3.35-5.13-3.35
			c-3.38,0-6.22,2.38-6.22,7.44s2.85,7.44,6.22,7.44c2.94,0,4.5-1.44,5.22-3.41h3.97c-1,4.69-4.28,7.16-9.19,7.16
			C501.21,395.84,496.33,391.96,496.33,384.64z"/>
		<path class="st0" d="M518.85,373.7h4.07v18.14h9.29v3.75h-13.35V373.7z"/>
		<path class="st0" d="M534.33,387.27V373.7h4.07v13.64c0,3.19,1.34,4.75,4.1,4.75c2.75,0,4.1-1.56,4.1-4.75V373.7h4.07v13.57
			c0,5.85-3.38,8.57-8.16,8.57C537.7,395.84,534.33,393.12,534.33,387.27z"/>
		<path class="st0" d="M554.92,373.7h8.01c3.72,0,6.25,1.94,6.25,5.91c0,1.78-0.78,3.32-2.16,4.03c2.06,0.84,3.28,2.56,3.28,5.35
			c0,4.25-2.75,6.6-7.22,6.6h-8.16V373.7z M562.71,382.2c1.63,0,2.56-0.59,2.56-2.38c0-1.78-0.94-2.38-2.66-2.38h-3.63v4.75H562.71z
			 M562.71,391.84c2.53,0,3.53-1.06,3.53-2.94c0-1.88-1-2.94-3.53-2.94h-3.72v5.88H562.71z"/>
	</g>
</g>
</svg>
